<svg width="23" height="23" viewBox="0 0 23 23" fill="none" xmlns="http://www.w3.org/2000/svg">
<path fill-rule="evenodd" clip-rule="evenodd" d="M4.48092 9.45874L10.4547 3.48496L11.2097 4.23999L5.23594 10.2138L4.48092 9.45874Z" fill="#F8F7FF"/>
<path fill-rule="evenodd" clip-rule="evenodd" d="M6.49434 11.4719L12.4681 5.49815L13.2231 6.25317L7.24937 12.2269L6.49434 11.4719Z" fill="#F8F7FF"/>
<path fill-rule="evenodd" clip-rule="evenodd" d="M10.7724 15.7505L16.7462 9.77671L17.5012 10.5317L11.5274 16.5055L10.7724 15.7505Z" fill="#F8F7FF"/>
<path fill-rule="evenodd" clip-rule="evenodd" d="M12.7863 17.7642L18.7601 11.7904L19.5151 12.5454L13.5414 18.5192L12.7863 17.7642Z" fill="#F8F7FF"/>
<path fill-rule="evenodd" clip-rule="evenodd" d="M12.7855 17.7645C10.7235 19.8265 7.36173 19.808 5.27678 17.723C3.19183 15.6381 3.17324 12.2763 5.23525 10.2143L4.48022 9.45923C2.00581 11.9336 2.02812 15.9678 4.53006 18.4697C7.032 20.9717 11.0661 20.994 13.5406 18.5196L12.7855 17.7645Z" fill="#F8F7FF"/>
<path fill-rule="evenodd" clip-rule="evenodd" d="M16.7467 9.7766L17.5017 10.5316C19.4262 8.60708 19.4089 5.46942 17.4629 3.52346C15.517 1.57751 12.3793 1.56015 10.4548 3.4847L11.2098 4.23973C12.7219 2.72758 15.1872 2.74122 16.7162 4.27018C18.2452 5.79915 18.2588 8.26445 16.7467 9.7766Z" fill="#F8F7FF"/>
<path fill-rule="evenodd" clip-rule="evenodd" d="M6.49365 11.4724C5.11898 12.8471 5.13137 15.0883 6.52134 16.4782C7.91131 17.8682 10.1525 17.8806 11.5272 16.5059L10.7721 15.7509C9.80987 16.7132 8.24104 16.7045 7.26806 15.7315C6.29508 14.7585 6.28641 13.1897 7.24868 12.2274L6.49365 11.4724Z" fill="#F8F7FF"/>
</svg>
